<svg width="1301" height="1381" viewBox="0 0 1301 1381" fill="none" xmlns="http://www.w3.org/2000/svg">
<path d="M489.46 1380.75L519.595 1368.72L533.658 845.308L489.46 851.324V1380.75Z" fill="#030B53"/>
<path d="M321.344 972.388L316.94 976.784L329.868 989.688L334.271 985.292L321.344 972.388Z" fill="#030B53"/>
<path d="M331.388 962.361L326.984 966.757L339.912 979.661L344.315 975.265L331.388 962.361Z" fill="#030B53"/>
<path d="M380.774 976.913L369.725 988.945L362.09 982.127L359.479 979.52L370.528 967.487L375.551 972.1L380.774 976.913Z" fill="white" stroke="black" stroke-miterlimit="10"/>
<path d="M383.788 979.721L369.724 994.962L368.318 993.759L362.09 988.143L356.465 982.528L359.277 979.52L362.09 982.127L369.724 988.946L380.774 976.913L383.788 979.721Z" fill="black" stroke="black" stroke-miterlimit="10"/>
<path d="M356.466 982.528L362.091 988.143L356.265 982.929L356.466 982.528Z" stroke="black" stroke-miterlimit="10"/>
<path d="M362.09 982.127L359.277 979.52H359.478L362.09 982.127Z" stroke="black" stroke-miterlimit="10"/>
<path d="M369.322 995.162L367.715 1002.78C367.313 1005.19 365.103 1006.99 362.693 1006.99H340.794L326.53 992.756L329.544 989.748L340.794 1000.98H362.693C365.103 1000.98 367.313 999.173 367.715 996.767L368.318 994.16L369.322 995.162Z" fill="black" stroke="black" stroke-miterlimit="10"/>
<path d="M367.715 996.967C367.314 999.373 365.104 1001.18 362.693 1001.18H340.794L329.544 989.948L341.799 977.715L346.621 972.902L366.108 992.354C367.514 993.558 368.117 995.162 367.715 996.967Z" fill="white" stroke="black" stroke-miterlimit="10"/>
<path d="M368.318 993.758V994.161" stroke="black" stroke-miterlimit="10"/>
<path d="M836.016 920.511L849.477 912.088L844.856 411.936L824.163 421.161L836.016 920.511Z" fill="#030B53"/>
<path d="M1263.94 546.5L1280.21 1002.33L1260.72 1011.96L1242.64 550.912L1263.94 546.5Z" fill="#030B53"/>
<path d="M1259.92 1012.76L1238.22 1003.13L1210.5 544.093L1241.84 548.305L1259.92 1012.76Z" fill="white" stroke="black" stroke-miterlimit="10"/>
<path d="M809.297 911.286L837.021 920.511L824.164 422.164L790.01 420.56L809.297 911.286Z" fill="white" stroke="black" stroke-miterlimit="10"/>
<path d="M87.6556 1155.14L59.5293 1163.17L95.6916 665.822H129.845L87.6556 1155.14Z" fill="#030B53"/>
<path d="M1291.06 542.89H1290.86L902.315 403.513C876.198 394.088 847.67 392.684 820.749 399.503L23.369 601.448L5.08694 591.622C-0.136516 588.814 0.867994 580.993 6.49325 579.589L820.749 373.633C847.67 366.814 876.198 368.218 902.315 377.643L1290.86 517.02C1302.91 521.232 1303.11 538.278 1291.06 542.89Z" fill="white" stroke="black" stroke-miterlimit="10"/>
<path d="M1290.66 542.89L540.088 825.454C504.729 838.69 465.352 836.283 432.003 818.435L23.3682 601.448L820.748 399.703C847.669 392.884 876.197 394.288 902.314 403.714L1290.66 542.89Z" fill="white" stroke="black" stroke-miterlimit="10"/>
<path d="M458.32 850.321L460.329 1369.72L488.456 1379.75V854.332L458.32 850.321Z" fill="white" stroke="black" stroke-miterlimit="10"/>
<path d="M1291.06 568.961L540.089 851.725C504.73 864.961 465.353 862.554 432.004 844.706L5.08694 617.692C-0.136516 614.885 0.867994 607.064 6.49325 605.66L23.369 601.449L431.803 818.636C465.152 836.283 504.529 838.89 539.888 825.655L1290.66 543.091C1302.91 547.302 1303.11 564.348 1291.06 568.961Z" fill="black"/>
<path d="M59.5297 1162.16L47.4756 1154.14L75.6019 654.793L95.6921 664.82L59.5297 1162.16Z" fill="white" stroke="black" stroke-miterlimit="10"/>
<path d="M838.428 578.186L822.758 572.972L801.864 566.153L781.171 559.134L760.478 552.316L756.058 553.519L737.174 559.335L735.566 559.736L718.088 564.95L680.117 576.381L642.147 587.611L603.975 599.042L566.005 610.272L545.714 616.289" fill="#0065F2"/>
<path d="M838.428 578.186L822.758 572.972L801.864 566.153L781.171 559.134L760.478 552.316L756.058 553.519L737.174 559.335L735.566 559.736L718.088 564.95L680.117 576.381L642.147 587.611L603.975 599.042L566.005 610.272L545.714 616.289" stroke="black" stroke-miterlimit="10"/>
<path d="M617.034 661.01L520.601 623.909" stroke="black" stroke-miterlimit="10"/>
<path d="M510.555 403.112L509.55 408.125V493.957L471.379 511.405V417.551V409.128" fill="black"/>
<path d="M790.814 486.337C627.882 480.321 442.651 479.518 418.141 588.613L419.145 565.551C440.039 487.34 570.424 455.854 793.827 467.285L790.814 486.337Z" fill="black"/>
<path d="M517.587 395.893V408.126V493.958L479.416 511.405V417.551V409.128" fill="white"/>
<path d="M517.587 395.893V408.126V493.958L479.416 511.405V417.551V409.128" stroke="black" stroke-miterlimit="10"/>
<path d="M501.314 466.483C494.885 468.489 488.456 463.676 488.456 456.857V414.142L508.546 402.109V456.857C508.546 461.269 505.533 465.28 501.314 466.483Z" fill="#030B53" stroke="black" stroke-miterlimit="10"/>
<path d="M790.813 486.337C630.092 480.321 451.49 479.519 427.181 588.614L428.185 567.557C448.878 489.345 573.437 457.86 793.827 469.291L790.813 486.337Z" fill="white" stroke="black" stroke-miterlimit="10"/>
<path d="M859.119 1.02588L843.047 333.926C838.627 334.527 834.007 335.129 829.587 335.931L845.056 17.0692C606.786 35.5191 392.424 62.9934 210.206 102.3V89.2644C395.438 48.3538 614.622 20.0774 859.119 1.02588Z" stroke="black" stroke-miterlimit="10"/>
<path d="M829.587 335.931L828.985 349.969C582.88 384.863 370.727 434.999 196.144 502.381V105.307C200.764 104.305 205.586 103.302 210.207 102.299V486.337C381.576 420.359 589.309 370.625 829.587 335.931Z" fill="#030B53"/>
<path d="M427.181 588.613H418.141L423.163 560.537L436.021 548.104C426.578 561.54 428.387 574.375 427.181 588.613Z" fill="black"/>
<path d="M760.478 532.461L520.601 604.055L617.034 650.982L849.679 574.575L760.478 532.461Z" fill="white" stroke="black" stroke-miterlimit="10"/>
<path d="M768.513 536.272L739.985 545.096L702.416 556.527H702.216L683.532 562.342L664.647 568.158L645.762 573.974L627.078 579.589L608.193 585.405L589.309 591.22L570.625 596.836L551.74 602.651L530.846 609.069L530.042 609.269" stroke="black" stroke-miterlimit="10"/>
<path d="M785.791 544.294L755.856 553.519L737.172 559.335L735.565 559.736L718.288 565.15L699.403 570.766L661.834 582.397L642.95 588.012L624.065 593.828L605.381 599.644L586.496 605.459L567.611 611.074L547.722 617.291L546.517 617.692" stroke="black" stroke-miterlimit="10"/>
<path d="M771.728 561.942L781.17 559.134L790.613 556.126L802.868 552.516" stroke="black" stroke-miterlimit="10"/>
<path d="M753.045 567.757L734.16 573.372L715.275 579.188L696.591 585.004L563.192 625.915" stroke="black" stroke-miterlimit="10"/>
<path d="M819.944 560.538L801.863 566.153L787.799 570.364L768.915 576.18L750.03 581.996L731.346 587.611L712.461 593.426L693.576 599.242L674.893 605.058L656.008 610.673L618.439 622.304L599.554 628.12L581.272 633.735L579.665 634.137" stroke="black" stroke-miterlimit="10"/>
<path d="M837.022 568.559L822.758 572.971L822.557 573.172L803.672 578.787L784.787 584.603L766.103 590.418L747.218 596.234L728.334 601.849L709.65 607.665L690.765 613.481L671.88 619.296L634.312 630.727L615.427 636.543L598.149 641.757L596.14 642.359" stroke="black" stroke-miterlimit="10"/>
<path d="M634.311 646.169L615.427 636.543" stroke="black" stroke-miterlimit="10"/>
<path d="M567.611 611.074L566.004 610.272L551.74 602.651L542.298 597.638" stroke="black" stroke-miterlimit="10"/>
<path d="M599.554 628.12L583.683 619.497" stroke="black" stroke-miterlimit="10"/>
<path d="M602.368 613.882L586.497 605.459" stroke="black" stroke-miterlimit="10"/>
<path d="M618.439 622.304L634.31 630.727L651.789 638.749" stroke="black" stroke-miterlimit="10"/>
<path d="M570.626 596.836L561.184 592.023" stroke="black" stroke-miterlimit="10"/>
<path d="M621.253 608.066L637.124 616.489" stroke="black" stroke-miterlimit="10"/>
<path d="M580.268 586.408L589.309 591.221L603.975 599.042L605.381 599.644" stroke="black" stroke-miterlimit="10"/>
<path d="M640.137 602.25L624.064 593.828" stroke="black" stroke-miterlimit="10"/>
<path d="M671.881 619.297L656.009 610.673" stroke="black" stroke-miterlimit="10"/>
<path d="M599.152 580.592L608.193 585.405" stroke="black" stroke-miterlimit="10"/>
<path d="M674.892 605.058L658.82 596.635" stroke="black" stroke-miterlimit="10"/>
<path d="M618.238 574.978L627.078 579.59L642.146 587.612L642.949 588.013" stroke="black" stroke-miterlimit="10"/>
<path d="M661.835 582.397L677.707 590.819" stroke="black" stroke-miterlimit="10"/>
<path d="M693.577 599.242L709.649 607.665L725.922 616.489" stroke="black" stroke-miterlimit="10"/>
<path d="M645.762 573.974L637.324 569.361" stroke="black" stroke-miterlimit="10"/>
<path d="M712.461 593.427L696.59 585.004" stroke="black" stroke-miterlimit="10"/>
<path d="M742.396 609.27L728.333 601.85" stroke="black" stroke-miterlimit="10"/>
<path d="M656.21 563.746L664.648 568.158L680.117 576.38L680.519 576.581" stroke="black" stroke-miterlimit="10"/>
<path d="M715.274 579.188L699.403 570.766" stroke="black" stroke-miterlimit="10"/>
<path d="M747.217 596.234L731.346 587.611" stroke="black" stroke-miterlimit="10"/>
<path d="M683.531 562.343L675.294 557.931" stroke="black" stroke-miterlimit="10"/>
<path d="M734.159 573.372L750.03 581.996" stroke="black" stroke-miterlimit="10"/>
<path d="M780.969 598.24L766.103 590.418" stroke="black" stroke-miterlimit="10"/>
<path d="M694.18 552.316L702.216 556.527H702.417L718.087 564.95L718.288 565.15" stroke="black" stroke-miterlimit="10"/>
<path d="M753.044 567.757L736.972 559.334" stroke="black" stroke-miterlimit="10"/>
<path d="M768.915 576.18L784.786 584.603L800.256 592.825" stroke="black" stroke-miterlimit="10"/>
<path d="M732.351 540.885L739.985 545.096L755.856 553.519H756.057L771.727 561.941L787.799 570.364L803.671 578.787L816.127 585.405L819.542 587.21L819.743 587.41" stroke="black" stroke-miterlimit="10"/>
<path d="M822.557 573.172L834.611 579.389" stroke="black" stroke-miterlimit="10"/>
<path d="M520.601 604.055V623.909L617.034 661.009V650.982L520.601 604.055Z" fill="#030B53" stroke="black" stroke-miterlimit="10"/>
<path d="M852.089 581.996L849.678 574.576L617.033 650.983V661.01L852.089 581.996Z" fill="#030B53" stroke="black" stroke-miterlimit="10"/>
<path d="M955.554 461.67L921.401 452.044L915.374 450.24L919.392 269.752L925.218 271.155L929.236 272.158L1061.03 303.242L1061.23 303.443L1144.4 323.096L1148.42 323.898V510.803" fill="white"/>
<path d="M955.554 461.67L921.401 452.044L915.374 450.24L919.392 269.752L925.218 271.155L929.236 272.158L1061.03 303.242L1061.23 303.443L1144.4 323.096L1148.42 323.898V510.803" stroke="black" stroke-miterlimit="10"/>
<path d="M1061.23 491.752L1092.97 500.776L1096.39 501.779L1144.4 515.416" stroke="black" stroke-miterlimit="10"/>
<path d="M1154.45 319.888V512.408L1144.4 509.6V321.893L925.217 270.153L925.418 265.741L1154.45 319.888Z" fill="#030B53"/>
<path d="M953.545 462.272L921.4 452.045L925.218 270.153L1144.4 323.698V517.421L1088.35 500.977L1059.42 492.554" fill="white"/>
<path d="M953.545 462.272L921.4 452.045L925.218 270.153L1144.4 323.698V517.421L1088.35 500.977L1059.42 492.554" stroke="black" stroke-miterlimit="10"/>
<path d="M1155.45 438.207L1179.56 444.224L1177.55 452.245L1155.45 450.24V438.207Z" fill="#030B53"/>
<path d="M1174.54 448.235C1174.54 448.235 1228.98 458.061 1193.62 481.926" stroke="black" stroke-miterlimit="10"/>
<path d="M1086.14 506.391L1045.96 510.402L941.489 480.321L959.57 452.245L971.625 444.223L1068.06 470.294L1086.14 506.391Z" stroke="black" stroke-miterlimit="10"/>
<path d="M1045.96 510.402L1055 483.329L1068.06 470.294L1087.14 507.394L1045.96 510.402Z" fill="#030B53"/>
<path d="M658.218 414.142L634.511 417.551C588.304 420.559 555.155 418.755 513.568 398.099V396.093" stroke="black" stroke-miterlimit="10"/>
<path d="M427.181 420.159C426.377 441.216 421.556 461.069 409.1 478.316" stroke="black" stroke-width="3" stroke-miterlimit="10"/>
<path d="M334.767 779.128C334.767 779.128 290.569 851.323 338.785 907.475C387.001 963.627 376.956 973.654 376.956 973.654" stroke="black" stroke-width="3" stroke-miterlimit="10"/>
<path d="M1054 401.107L1005.78 389.074V377.042L1054 389.074V401.107Z" stroke="#030B53" stroke-miterlimit="10"/>
<path d="M292.375 583.4C292.375 583.4 254.003 585.606 274.696 618.695C295.388 651.785 295.388 651.785 295.388 651.785" stroke="#030B53" stroke-width="4" stroke-miterlimit="10"/>
<path d="M329.744 675.449H323.917C307.845 675.449 294.787 662.614 294.586 646.37L294.385 576.18C294.385 575.579 294.586 575.178 295.188 574.776L298.202 574.175L299.006 576.18L300.613 579.991L336.976 664.018C339.387 669.432 335.57 675.248 329.744 675.449Z" fill="black"/>
<path d="M867.157 538.478L896.689 548.906C906.534 552.115 920.998 559.133 930.642 555.524L945.91 550.31C948.321 549.507 950.33 547.502 950.33 544.895C950.531 540.684 942.294 534.667 935.263 532.461" stroke="black" stroke-miterlimit="10"/>
<path d="M940.486 533.665C932.249 527.849 922.204 524.239 910.752 522.033C895.685 519.226 886.845 518.223 871.777 521.632L853.696 525.643C853.696 525.643 886.242 519.627 915.172 543.692C915.172 543.692 924.213 551.714 916.78 556.125L928.432 555.724C937.874 549.909 942.294 542.689 938.879 534.467L940.486 533.665Z" fill="#030B53"/>
<path d="M370.728 575.979L370.929 648.174C370.929 664.218 358.071 677.253 341.798 677.453L317.891 675.448C304.43 672.239 294.787 665.22 294.787 652.386L294.586 584.201C294.586 579.789 298.202 576.18 302.622 576.18L370.728 575.979Z" fill="white" stroke="black" stroke-miterlimit="10"/>
<path d="M318.292 674.847C290.166 675.649 286.75 662.413 286.55 646.37L286.349 576.18C286.349 576.581 286.75 576.381 287.554 575.979L286.349 576.18C286.349 572.37 303.425 569.161 324.52 568.96C325.926 568.96 327.132 568.96 328.337 568.96H328.538L298.202 574.174L297.8 573.172C296.595 573.573 295.791 574.175 295.188 574.576C294.586 574.977 294.385 575.578 294.385 575.979L294.586 654.191C294.385 669.833 318.292 674.847 318.292 674.847Z" fill="black" stroke="black" stroke-miterlimit="10"/>
<path d="M370.728 575.979C370.728 579.79 353.651 582.998 332.556 583.199C331.15 583.199 329.944 583.199 328.739 583.199H328.538C317.087 582.998 307.042 581.795 300.814 580.191C296.796 579.188 294.385 577.784 294.385 576.38C294.385 575.779 294.586 575.378 295.188 574.977C295.791 574.375 296.595 573.974 297.8 573.573L298.202 574.575L328.538 569.361C329.744 569.361 331.15 569.361 332.355 569.361C353.45 568.96 370.728 571.968 370.728 575.979Z" fill="black" stroke="black" stroke-miterlimit="10"/>
<path d="M325.722 582.597H325.524" stroke="black" stroke-miterlimit="10"/>
<path d="M433.208 775.118C433.208 775.118 451.289 743.031 501.515 741.026C501.515 741.026 521.605 722.977 551.74 722.977" fill="black"/>
<path d="M433.208 775.118C433.208 775.118 451.289 743.031 501.515 741.026C501.515 741.026 521.605 722.977 551.74 722.977" stroke="black" stroke-miterlimit="10"/>
<path d="M344.812 714.955C344.812 714.955 362.893 682.868 413.118 680.863C413.118 680.863 433.208 662.814 463.344 662.814" stroke="black" stroke-miterlimit="10"/>
<path d="M433.208 769.102L346.82 718.966" stroke="black" stroke-miterlimit="10"/>
<path d="M427.182 775.118L340.794 724.982" stroke="black" stroke-miterlimit="10"/>
<path d="M497.496 737.015L419.145 682.868" stroke="black" stroke-miterlimit="10"/>
<path d="M467.36 664.82L551.739 716.961" stroke="black" stroke-miterlimit="10"/>
<path d="M560.58 692.495L562.187 691.091L594.733 729.394L590.113 733.004L560.58 692.495Z" fill="black"/>
<path d="M590.916 733.606L591.719 733.004L593.326 734.408L594.934 735.611L593.929 733.806L593.125 731.801L595.134 730.397L596.34 734.207L597.545 737.817L594.331 735.812L590.916 733.606Z" fill="black"/>
<path d="M349.833 573.573C349.833 573.573 361.887 567.557 357.869 559.535C353.851 551.513 345.815 545.497 349.833 539.481" stroke="black" stroke-miterlimit="10"/>
<path d="M327.1 573C327.1 573 339.214 563.647 335.176 551.176C331.138 538.705 323.063 529.353 327.1 520" stroke="black" stroke-miterlimit="10"/>
<path d="M303.627 573.573C303.627 573.573 315.681 567.557 311.663 559.535C307.645 551.513 299.609 545.497 303.627 539.481" stroke="black" stroke-miterlimit="10"/>
<path d="M363.897 711.345C372.134 700.917 386.8 694.098 408.096 692.895" stroke="black" stroke-width="0.5" stroke-miterlimit="10"/>
<path d="M369.924 715.356C378.161 704.928 392.827 698.109 414.122 696.906" stroke="black" stroke-width="0.5" stroke-miterlimit="10"/>
<path d="M375.951 719.367C384.188 708.939 398.854 702.121 420.15 700.917" stroke="black" stroke-width="0.5" stroke-miterlimit="10"/>
<path d="M387.001 728.392C395.238 717.964 409.904 711.145 431.199 709.942" stroke="black" stroke-width="0.5" stroke-miterlimit="10"/>
<path d="M394.031 731.4C402.268 720.972 416.934 714.153 438.23 712.95" stroke="black" stroke-width="0.5" stroke-miterlimit="10"/>
<path d="M400.06 735.41C408.297 724.982 422.962 718.164 444.258 716.96" stroke="black" stroke-width="0.5" stroke-miterlimit="10"/>
<path d="M406.086 739.421C414.323 728.993 428.989 722.174 450.284 720.971" stroke="black" stroke-width="0.5" stroke-miterlimit="10"/>
<path d="M424.168 751.453C432.405 741.025 447.071 734.207 468.366 733.003" stroke="black" stroke-width="0.5" stroke-miterlimit="10"/>
<path d="M430.194 755.464C438.431 745.036 453.097 738.218 474.393 737.015" stroke="black" stroke-width="0.5" stroke-miterlimit="10"/>
<path d="M436.222 688.684C442.651 680.261 454.102 674.847 470.576 673.844" stroke="black" stroke-width="0.5" stroke-miterlimit="10"/>
<path d="M440.842 691.893C447.271 683.47 458.722 678.055 475.397 677.053" stroke="black" stroke-width="0.5" stroke-miterlimit="10"/>
<path d="M450.285 698.31C456.714 689.887 468.165 684.472 484.84 683.47" stroke="black" stroke-width="0.5" stroke-miterlimit="10"/>
<path d="M455.106 701.518C461.535 693.096 472.987 687.681 489.461 686.678" stroke="black" stroke-width="0.5" stroke-miterlimit="10"/>
<path d="M473.79 714.353C480.219 705.931 491.67 700.516 508.345 699.513" stroke="black" stroke-width="0.5" stroke-miterlimit="10"/>
<path d="M478.411 717.562C484.84 709.139 496.291 703.725 512.966 702.722" stroke="black" stroke-width="0.5" stroke-miterlimit="10"/>
<path d="M483.232 720.771C489.661 712.348 501.113 706.933 517.587 705.931" stroke="black" stroke-width="0.5" stroke-miterlimit="10"/>
<path d="M487.854 723.979C494.282 715.557 505.734 710.142 522.409 709.139" stroke="black" stroke-width="0.5" stroke-miterlimit="10"/>
<path d="M823.962 41.1343V53.1668C617.636 65.801 421.555 91.8714 237.328 133.384V119.346C437.828 79.0367 634.11 50.9608 823.962 41.1343Z" fill="#030B53"/>
<path d="M418.944 184.321V195.15C360.281 204.776 302.622 219.415 246.369 232.25V219.415C304.43 207.784 361.888 193.545 418.944 184.321Z" stroke="#0065F2" stroke-width="2" stroke-miterlimit="10"/>
<path d="M503.323 130.375L502.519 148.424C415.127 162.663 330.346 178.706 246.57 197.758V178.706C332.757 161.459 418.342 144.213 503.323 130.375Z" fill="#030B53"/>
<path d="M418.944 206.38V217.21C360.281 226.836 302.622 241.475 246.369 254.31V241.475C304.43 229.844 361.888 215.605 418.944 206.38Z" stroke="#0065F2" stroke-width="2" stroke-miterlimit="10"/>
<path d="M418.944 228.641V239.47C360.281 249.096 302.622 263.736 246.369 276.57V263.736C304.43 252.104 361.888 237.866 418.944 228.641Z" stroke="#0065F2" stroke-width="2" stroke-miterlimit="10"/>
<path d="M418.944 250.701V261.53C360.281 271.156 302.622 285.996 246.369 298.63V285.796C304.43 274.164 361.888 259.926 418.944 250.701Z" stroke="#0065F2" stroke-width="2" stroke-miterlimit="10"/>
<path d="M418.944 272.96V283.79C360.281 293.416 302.622 308.256 246.369 320.89V308.055C304.43 296.424 361.888 282.185 418.944 272.96Z" stroke="#0065F2" stroke-width="2" stroke-miterlimit="10"/>
<path d="M418.944 295.02V305.849C360.281 315.475 302.622 330.114 246.369 342.949V330.114C304.43 318.483 361.888 304.244 418.944 295.02Z" stroke="#0065F2" stroke-width="2" stroke-miterlimit="10"/>
<path d="M341.796 346.96V363.004L249.381 389.074V369.02L341.796 346.96Z" fill="#030B53"/>
<path d="M210.206 102.299V486.337C381.575 420.158 589.308 370.625 829.587 335.931L845.056 17.0688C606.787 35.5187 392.424 62.993 210.206 102.299ZM341.797 363.004L249.382 389.074V369.02L341.797 346.961V363.004ZM418.943 306.05C360.28 315.676 302.621 330.316 246.368 343.15V330.316C304.228 318.684 361.887 304.446 418.943 295.221V306.05ZM418.943 283.79C360.28 293.416 302.621 308.256 246.368 320.89V308.055C304.228 296.424 361.887 282.185 418.943 272.961V283.79ZM418.943 261.73C360.28 271.356 302.621 286.196 246.368 298.83V285.996C304.228 274.364 361.887 260.126 418.943 250.901V261.73ZM418.943 239.47C360.28 249.096 302.621 263.736 246.368 276.57V263.736C304.228 252.104 361.887 237.866 418.943 228.641V239.47ZM418.943 217.41C360.28 227.036 302.621 241.676 246.368 254.511V241.676C304.228 230.045 361.887 215.806 418.943 206.581V217.41ZM418.943 195.15C360.28 204.776 302.621 219.416 246.368 232.25V219.416C304.228 207.784 361.887 193.546 418.943 184.321V195.15ZM502.518 148.424C415.126 162.662 330.345 178.706 246.569 197.757V178.706C332.756 161.259 418.541 144.213 503.523 130.375L502.518 148.424ZM799.853 274.765C708.644 282.185 619.845 300.836 532.654 320.89L538.681 124.359C625.47 109.92 718.689 94.8792 809.898 94.2775L799.853 274.765ZM823.962 53.1664C617.635 65.8006 421.555 91.871 237.328 133.383V119.345C437.828 79.0363 634.109 50.7599 823.962 41.1339V53.1664Z" fill="white" stroke="black" stroke-miterlimit="10"/>
<path d="M809.9 94.2776L799.854 274.765C708.645 282.186 619.846 300.836 532.655 320.89L538.682 124.359C625.472 109.92 718.69 95.0798 809.9 94.2776Z" fill="white" stroke="#103BA9" stroke-width="2" stroke-miterlimit="10"/>
</svg>
